<?xml version="1.0" encoding="utf-8"?>
<!-- Generator: Adobe Illustrator 17.0.0, SVG Export Plug-In . SVG Version: 6.00 Build 0)  -->
<!DOCTYPE svg PUBLIC "-//W3C//DTD SVG 1.1//EN" "http://www.w3.org/Graphics/SVG/1.1/DTD/svg11.dtd">
<svg version="1.1" id="Capa_1" xmlns="http://www.w3.org/2000/svg" xmlns:xlink="http://www.w3.org/1999/xlink" x="0px" y="0px"
	 width="191.846px" height="35px" viewBox="0 0 191.846 35" enable-background="new 0 0 191.846 35" xml:space="preserve">
<g>
	<g>
		<path fill="#828282" d="M43.817,32.5c-1.748,0-3.071-0.396-3.071-0.396v-2.852h1.367v1.484L42.377,31
			c0.397,0.074,0.884,0.119,1.44,0.119c1.206,0,1.574-0.559,1.574-1.369c0-0.85-0.339-1.189-1.558-1.527
			c-2.104-0.572-3.059-1.322-3.059-3.277c0-2,1.616-3.029,3.853-3.029c1.571,0,2.776,0.384,2.776,0.384v2.718h-1.367V23.65
			l-0.249-0.249c-0.339-0.059-0.721-0.102-1.16-0.102c-1.045,0-1.646,0.485-1.646,1.234c0,0.764,0.16,1.115,1.763,1.559
			c1.925,0.528,3.013,1.322,3.013,3.102C47.757,31.455,46.154,32.5,43.817,32.5z"/>
		<path fill="#828282" d="M55.034,28.84h-3.896c0.073,1.647,0.676,2.248,2.102,2.248c0.779,0,1.394-0.234,1.631-0.308v1.177
			C54.49,32.221,53.74,32.5,52.476,32.5c-1.897,0-3.587-1.118-3.587-3.881c0-2.852,1.528-4.203,3.365-4.203
			c1.779,0,3.044,1.205,3.044,3.16v1L55.034,28.84z M51.153,27.811h2.027V27.43c0-1.133-0.234-1.677-0.91-1.677
			C51.58,25.753,51.24,26.488,51.153,27.811z"/>
		<path fill="#828282" d="M59.59,29.399c-0.353,0-0.691-0.029-1.014-0.103c-0.192,0.146-0.294,0.337-0.294,0.528
			c0,0.278,0.177,0.412,0.604,0.412h2.22c1.351,0,2.498,0.397,2.498,2.029c0,1.866-1.882,2.734-4.16,2.734
			c-1.971,0-3.219-0.396-3.219-1.662c0-0.631,0.499-1.014,1.014-1.264c-0.543-0.234-0.912-0.736-0.912-1.411
			c0-0.602,0.369-1.265,1.222-1.78c-0.662-0.41-1.074-1.072-1.074-1.983c0-1.707,1.44-2.484,3.116-2.484
			c0.411,0,0.824,0.045,1.191,0.146h2.778v1.073h-0.986l-0.133,0.132c0.177,0.324,0.281,0.691,0.281,1.133
			C62.722,28.59,61.265,29.399,59.59,29.399z M58.282,32.221c-0.118,0.146-0.251,0.426-0.251,0.84c0,0.602,0.369,0.953,1.456,0.953
			c1.146,0,1.91-0.351,1.91-1.131c0-0.559-0.338-0.662-0.94-0.662H58.282z M59.59,25.621c-0.691,0-1.088,0.427-1.088,1.279
			c0,0.838,0.396,1.277,1.088,1.277c0.707,0,1.103-0.439,1.103-1.277C60.692,26.048,60.297,25.621,59.59,25.621z"/>
		<path fill="#828282" d="M70.908,24.562c0.588,0,0.675,0.338,0.675,0.647v5.806l0.266,0.266h0.646v1.072h-2.336
			c-0.588,0-0.678-0.338-0.678-0.646v-0.236h-0.073c-0.234,0.266-0.955,1.029-2.086,1.029c-1.751,0-2.264-1.059-2.264-2.351V25.9
			l-0.264-0.265h-0.648v-1.073h2.47c0.589,0,0.676,0.338,0.676,0.647v4.585c0,0.441,0.045,1.044,0.897,1.044
			c0.513,0,0.926-0.234,1.162-0.396V25.9l-0.266-0.265H68.44v-1.073H70.908z"/>
		<path fill="#828282" d="M76.699,31.281h0.823v1.072h-4.219v-1.072h0.648l0.262-0.266V25.9l-0.262-0.265h-0.648v-1.073h2.338
			c0.588,0,0.675,0.338,0.675,0.647v0.384h0.075c0.234-0.297,0.97-1.178,2.115-1.178c0.28,0,0.559,0.045,0.559,0.045v3.071h-1.323
			v-1.03l-0.248-0.234c-0.457,0.088-0.839,0.264-1.044,0.382v4.366L76.699,31.281z"/>
		<path fill="#828282" d="M83.402,32.5c-1.985,0-3.512-1.248-3.512-4.043c0-2.791,1.526-4.041,3.512-4.041
			c1.984,0,3.512,1.25,3.512,4.041C86.914,31.252,85.387,32.5,83.402,32.5z M83.402,25.812c-0.986,0-1.235,0.852-1.235,2.645
			c0,1.794,0.249,2.646,1.235,2.646c0.984,0,1.235-0.853,1.235-2.646C84.638,26.664,84.387,25.812,83.402,25.812z"/>
		<path fill="#828282" d="M90.576,32.5c-1.56,0-2.516-0.338-2.516-0.338v-2.176h1.22v0.984l0.251,0.265
			c0.31,0.046,0.647,0.06,1.045,0.06c0.851,0,1.131-0.383,1.131-0.94c0-0.574-0.161-0.854-1.382-1.103
			c-1.823-0.369-2.221-1.338-2.221-2.352c0-1.559,1.148-2.484,3.133-2.484c1.264,0,2.234,0.25,2.234,0.25v2.13h-1.221V25.9
			l-0.249-0.234c-0.236-0.03-0.485-0.059-0.765-0.059c-0.735,0-1.177,0.323-1.177,0.793c0,0.471,0.045,0.824,1.147,1.044
			c1.924,0.395,2.616,1.102,2.616,2.276C93.824,31.604,92.472,32.5,90.576,32.5z"/>
	</g>
	<g>
		<path fill="#828282" d="M54.663,18.309h-2.888L44.602,7.539v8.469l0.415,0.441h1.102v1.785h-6.095v-1.785h1.077l0.44-0.441V3.33
			l-0.44-0.443h-1.077V1.1h5.065l6.514,9.817V3.33l-0.441-0.443h-1.077V1.1h6.095v1.787H55.08L54.663,3.33V18.309z"/>
		<path fill="#828282" d="M62.914,18.48c-3.306,0-5.85-2.08-5.85-6.731c0-4.651,2.545-6.732,5.85-6.732
			c3.303,0,5.85,2.081,5.85,6.732C68.764,16.4,66.217,18.48,62.914,18.48z M62.914,7.344c-1.641,0-2.057,1.42-2.057,4.405
			c0,2.987,0.416,4.405,2.057,4.405c1.639,0,2.055-1.418,2.055-4.405C64.969,8.764,64.553,7.344,62.914,7.344z"/>
		<path fill="#828282" d="M75.691,16.449h1.372v1.785h-7.025v-1.785h1.076l0.44-0.441v-8.52l-0.44-0.439h-1.076V5.262h3.892
			c0.979,0,1.125,0.563,1.125,1.076v0.637h0.123c0.393-0.489,1.615-1.958,3.524-1.958c0.465,0,0.932,0.073,0.932,0.073v5.117H77.43
			V8.494l-0.416-0.393c-0.759,0.146-1.396,0.44-1.739,0.635v7.272L75.691,16.449z"/>
		<path fill="#828282" d="M85.582,7.098v8.91l0.44,0.441h2.373v1.785c0,0-1.564,0.246-3.305,0.246c-2.129,0-3.23-0.783-3.23-3.036
			V7.098h-1.518V5.311h1.076l0.441-0.44l1.396-3.034h2.326v3.475h2.74v1.787H85.582z"/>
		<path fill="#828282" d="M99.436,12.386h-6.486c0.124,2.741,1.127,3.745,3.501,3.745c1.297,0,2.326-0.393,2.717-0.514v1.957
			c-0.637,0.44-1.884,0.906-3.99,0.906c-3.157,0-5.973-1.859-5.973-6.463c0-4.749,2.546-7.001,5.605-7.001
			c2.962,0,5.068,2.007,5.068,5.264v1.663L99.436,12.386z M92.975,10.672h3.377v-0.637c0-1.885-0.392-2.791-1.517-2.791
			C93.685,7.244,93.121,8.467,92.975,10.672z"/>
		<path fill="#828282" d="M111.676,10.794h-5.189v5.214l0.416,0.441h1.103v1.785h-7.002v-1.785h1.078l0.439-0.441V3.33l-0.439-0.443
			h-1.078V1.1h7.002v1.787h-1.103l-0.416,0.443V8.2h5.189V3.33l-0.44-0.443h-1.078V1.1h7.002v1.787h-1.102l-0.417,0.443v12.678
			l0.417,0.441h1.102v1.785h-7.002v-1.785h1.078l0.44-0.441V10.794z"/>
		<path fill="#828282" d="M122.767,5.262c0.979,0,1.125,0.563,1.125,1.076v9.67l0.417,0.441h1.102v1.785h-6.755v-1.785h1.075
			l0.44-0.441v-8.52l-0.44-0.439h-1.075V5.262H122.767z M121.812,0c1.396,0,2.08,0.758,2.08,1.957s-0.685,1.959-2.08,1.959
			c-1.395,0-2.081-0.76-2.081-1.959S120.417,0,121.812,0z"/>
		<path fill="#828282" d="M130.868,18.48c-2.594,0-4.185-0.562-4.185-0.562v-3.624h2.033v1.64l0.414,0.441
			c0.514,0.074,1.078,0.1,1.738,0.1c1.42,0,1.885-0.637,1.885-1.568c0-0.955-0.268-1.419-2.299-1.836
			c-3.037-0.611-3.697-2.227-3.697-3.916c0-2.594,1.908-4.138,5.213-4.138c2.105,0,3.721,0.417,3.721,0.417v3.55h-2.031V7.488
			l-0.416-0.391C132.853,7.049,132.435,7,131.97,7c-1.223,0-1.957,0.539-1.957,1.322c0,0.781,0.072,1.371,1.908,1.738
			c3.205,0.66,4.357,1.835,4.357,3.793C136.278,16.988,134.026,18.48,130.868,18.48z"/>
		<path fill="#828282" d="M137.331,5.262h3.893c0.979,0,1.125,0.563,1.125,1.076v0.393h0.074c0.588-0.807,1.885-1.714,3.327-1.714
			c2.547,0,4.676,1.958,4.676,6.61c0,4.65-2.129,6.853-4.676,6.853c-1.247,0-2.544-0.709-3.181-1.492v3.182l0.416,0.439h1.25v1.787
			h-6.904v-1.787h1.076l0.441-0.439V7.488l-0.441-0.439h-1.076V5.262z M144.431,7.807c-0.541,0-1.225,0.295-1.861,0.857v6.414
			c0.637,0.513,1.348,0.637,1.861,0.637c1.64,0,2.202-1.15,2.202-3.966C146.633,8.934,146.07,7.807,144.431,7.807z"/>
		<path fill="#828282" d="M163.916,18.234h-3.895c-0.977,0-1.125-0.562-1.125-1.076v-0.391h-0.123
			c-0.391,0.44-1.59,1.713-3.475,1.713c-2.814,0-3.721-1.786-3.721-3.893c0-2.301,1.689-3.647,4.332-3.647h2.768V9.768
			c0-1.421-0.076-2.451-2.18-2.451c-0.318,0-0.711,0.027-1.1,0.074l-0.369,0.367v1.715h-2.277V5.727c0,0.025,2.057-0.71,5.068-0.71
			c3.5,0,4.578,1.886,4.578,4.162v6.829l0.439,0.441h1.078V18.234z M158.678,15.055v-2.131h-1.74c-1.123,0-1.639,0.49-1.639,1.297
			c0,1.028,0.342,1.494,1.492,1.494C157.6,15.715,158.285,15.322,158.678,15.055z"/>
		<path fill="#828282" d="M164.748,18.234v-1.785h1.076l0.441-0.441v-8.52l-0.441-0.439h-1.076V5.262h3.893
			c0.977,0,1.125,0.563,1.125,1.076v0.393h0.123c0.393-0.44,1.664-1.714,3.6-1.714c2.912,0,3.77,1.764,3.77,3.917v7.074l0.439,0.441
			h1.078v1.785h-6.465v-1.785h0.811l0.414-0.441V9.521c0-0.733-0.072-1.737-1.617-1.737c-0.855,0-1.564,0.391-1.932,0.66v7.564
			l0.418,0.441h0.807v1.785H164.748z"/>
		<path fill="#828282" d="M191.846,18.234h-3.891c-0.98,0-1.127-0.562-1.127-1.076v-0.391h-0.123
			c-0.391,0.44-1.59,1.713-3.475,1.713c-2.814,0-3.723-1.786-3.723-3.893c0-2.301,1.689-3.647,4.334-3.647h2.766V9.768
			c0-1.421-0.072-2.451-2.178-2.451c-0.318,0-0.711,0.027-1.102,0.074l-0.367,0.367v1.715h-2.277V5.727
			c0,0.025,2.059-0.71,5.068-0.71c3.5,0,4.576,1.886,4.576,4.162v6.829l0.441,0.441h1.076V18.234z M186.607,15.055v-2.131h-1.738
			c-1.125,0-1.639,0.49-1.639,1.297c0,1.028,0.342,1.494,1.492,1.494C185.531,15.715,186.217,15.322,186.607,15.055z"/>
	</g>
	<path fill="#DC0028" d="M14.103,18.649c3.742,3.629,5.197,9.734,5.843,12.143c0.377,1.411,1.827,2.247,3.236,1.868
		c1.411-0.377,2.246-1.826,1.869-3.235C24.404,27.016,22.613,21,24.04,15.986c1.271-5.055,5.832-9.371,7.596-11.133
		c1.03-1.031,1.03-2.705,0-3.736c-1.033-1.031-2.705-1.031-3.738,0C26.135,2.881,21.82,7.44,16.766,8.713l0,0
		C11.753,10.14,5.735,8.347,3.327,7.699C1.916,7.322,0.469,8.159,0.091,9.57c-0.377,1.408,0.459,2.857,1.869,3.236
		C4.367,13.452,10.476,14.906,14.103,18.649L14.103,18.649z"/>
</g>
</svg>
